Coordinates
version=1
nRows=22
nColumns=24
inDegrees=yes

Units are S.I. units (second, meters, Newtons, ...)
Angles are in degrees.

endheader
time	pelvis_tilt	pelvis_list	pelvis_rotation	pelvis_tx	pelvis_ty	pelvis_tz	hip_flexion_r	hip_adduction_r	hip_rotation_r	knee_angle_r	ankle_angle_r	subtalar_angle_r	mtp_angle_r	hip_flexion_l	hip_adduction_l	hip_rotation_l	knee_angle_l	ankle_angle_l	subtalar_angle_l	mtp_angle_l	lumbar_extension	lumbar_bending	lumbar_rotation
      0.44200000	     -3.78006158	      0.82807636	     -0.80068776	     -0.77782737	      1.05324397	      0.31120348	     24.59493630	      2.42954267	     -7.39539308	     -2.73212921	      5.07249278	     -3.41619997	     -0.23998585	     -5.02057928	      4.39972429	     -3.90640557	    -14.26604611	     14.95963866	      3.88004119	      0.12393606	      4.82469965	      1.56858830	     -2.54752027
      0.44616667	     -3.74656825	      0.80764646	     -0.79768537	     -0.77189950	      1.05295780	      0.31132712	     24.50589445	      2.48961814	     -7.33807781	     -2.99508062	      5.11142688	     -3.41669704	     -0.24871976	     -5.06935584	      4.32358189	     -3.94728900	    -14.94717704	     14.90353207	      3.88298331	      0.11159792	      4.89149937	      1.64340600	     -2.57393496
      0.45033333	     -3.70771888	      0.78888551	     -0.80306428	     -0.76592781	      1.05268251	      0.31149204	     24.41586546	      2.55385937	     -7.26468941	     -3.31930128	      5.15112555	     -3.40285446	     -0.25703139	     -5.09370921	      4.23725750	     -4.06387682	    -15.69462690	     14.82900435	      3.93639219	      0.10062378	      4.92713754	      1.70535263	     -2.60411807
      0.45450000	     -3.62141285	      0.74636642	     -0.98167073	     -0.75983015	      1.05243644	      0.31227573	     24.26892118	      2.75598449	     -6.89446008	     -3.69324036	      5.36398206	     -3.51585229	     -0.38244748	     -5.14470378	      4.07532786	     -4.69663187	    -16.51271596	     14.89468583	      5.00314905	     -0.01454175	      4.80971541	      1.71068674	     -2.80797085
      0.45866667	     -3.54996535	      0.73544076	     -0.97035913	     -0.75380865	      1.05224318	      0.31237681	     24.13898494	      2.79523869	     -6.79901657	     -4.08807750	      5.32387307	     -3.49628961	     -0.38900501	     -5.15622349	      3.98988765	     -4.76224047	    -17.35305243	     14.79726944	      5.02124421	     -0.02099667	      4.86889738	      1.74748471	     -2.81000332
      0.46283333	     -3.48471017	      0.74517589	     -1.13459940	     -0.74781536	      1.05198288	      0.31297352	     24.05399834	      2.91186527	     -6.55780176	     -4.57961377	      5.26582909	     -3.56162597	     -0.43096690	     -5.11946295	      3.89431482	     -5.27149167	    -18.25866908	     14.46178450	      5.57193416	     -0.04605327	      4.75613417	      1.69533958	     -2.84973529
      0.46700000	     -3.38122727	      0.69120168	     -1.20007030	     -0.74165694	      1.05186040	      0.31357336	     23.83341952	      3.07327276	     -6.06628812	     -4.92719692	      5.13805251	     -3.86061930	     -0.50746226	     -5.10177214	      3.69367395	     -5.68831124	    -19.24540267	     14.33770168	      6.32195159	     -0.06103044	      4.73763583	      1.68185680	     -2.84282937
      0.47116667	     -3.30403282	      0.69837177	     -1.26252089	     -0.73567409	      1.05168684	      0.31392024	     23.71128673	      3.13440073	     -5.86135879	     -5.41571397	      4.97748294	     -4.02910352	     -0.54644492	     -5.01037883	      3.58806743	     -5.97534767	    -20.28379183	     14.09925095	      6.62244560	     -0.05808527	      4.63734547	      1.73355012	     -2.84602721
      0.47533333	     -3.24751272	      0.63837079	     -1.22091076	     -0.72948580	      1.05157144	      0.31421268	     23.54463013	      3.23361476	     -5.64949848	     -5.81518343	      4.85202818	     -4.05018782	     -0.56040946	     -4.86660704	      3.37663146	     -6.20823985	    -21.40119649	     13.86141341	      6.80117128	     -0.05065518	      4.57828004	      1.76573413	     -2.84731145
      0.47950000	     -3.11591227	      0.60811538	     -1.35107051	     -0.72335558	      1.05150758	      0.31495911	     23.29654806	      3.39329731	     -5.06883536	     -6.20155638	      4.49644996	     -4.52256047	     -0.61650390	     -4.78741096	      3.17544138	     -6.68055830	    -22.53176079	     13.36077212	      7.65241929	      0.01454562	      4.60469670	      1.72178459	     -2.82245197
      0.48366667	     -3.00630267	      0.57402325	     -1.40817360	     -0.71730775	      1.05144085	      0.31551466	     23.08721848	      3.51416438	     -4.69364201	     -6.62184350	      4.15802481	     -4.96613125	     -0.66703983	     -4.62796113	      2.96698466	     -7.04732052	    -23.75913542	     12.94559773	      8.13543359	      0.10788586	      4.48954918	      1.75858797	     -2.79211769
      0.48783333	     -2.93921461	      0.51787459	     -1.38972132	     -0.71117221	      1.05136746	      0.31579028	     22.92084177	      3.60220109	     -4.56271633	     -7.06805882	      4.01433222	     -4.98557866	     -0.67489966	     -4.38889617	      2.74189974	     -7.28300842	    -25.05873383	     12.66782496	      8.24206404	      0.13107197	      4.39384943	      1.86028277	     -2.80186135
      0.49200000	     -2.80682383	      0.47215362	     -1.47021769	     -0.70507530	      1.05137030	      0.31643974	     22.66329084	      3.74464515	     -4.09763914	     -7.44881964	      3.54055180	     -5.45309433	     -0.71081510	     -4.19705546	      2.49757487	     -7.65674459	    -26.36005579	     11.84055088	      8.89053350	      0.26133957	      4.40625753	      1.84174894	     -2.77352414
      0.49616667	     -2.72793475	      0.44802460	     -1.52474856	     -0.69913731	      1.05128810	      0.31686390	     22.51201843	      3.82539703	     -3.87922223	     -7.92992834	      3.23825332	     -5.70710651	     -0.72892486	     -3.88830358	      2.28922038	     -7.94694551	    -27.76835265	     11.28109131	      9.20010330	      0.35101884	      4.23851773	      1.98764359	     -2.78252584
      0.50033333	     -2.64417321	      0.36654881	     -1.53616517	     -0.69304166	      1.05126121	      0.31735943	     22.30208602	      3.96400384	     -3.58651680	     -8.31993240	      2.86737582	     -6.00601687	     -0.74680980	     -3.56177980	      1.98839243	     -8.22021139	    -29.21425916	     10.50227254	      9.57153675	      0.46138466	      4.18903995	      2.05392459	     -2.76602310
      0.50450000	     -2.55300159	      0.23888256	     -1.50057373	     -0.68685190	      1.05127978	      0.31776357	     22.06976657	      4.12487131	     -3.43414160	     -8.70469488	      2.68306738	     -6.07303236	     -0.75190176	     -3.21156981	      1.62697457	     -8.45035737	    -30.74543703	     10.07295239	      9.68575810	      0.50952904	      4.11158268	      2.11571403	     -2.75785231
      0.50866667	     -2.49180045	      0.15917795	     -1.58673947	     -0.68087228	      1.05118855	      0.31860888	     21.87265171	      4.31679231	     -2.83464057	     -9.05118291	      1.97608711	     -7.28435047	     -0.79878320	     -2.79030915	      1.28492516	     -8.79420968	    -32.28047751	      8.95944632	     10.11275529	      0.96010811	      4.18284418	      2.23125580	     -2.67799529
      0.51283333	     -2.39401606	      0.07471490	     -1.56842236	     -0.67499925	      1.05118782	      0.31889713	     21.68340033	      4.41415243	     -2.73266243	     -9.50651521	      1.74472668	     -7.30162571	     -0.80640158	     -2.35726236	      0.98030868	     -8.91761942	    -33.88300648	      8.10743697	     10.37709478	      1.08767797	      4.02746294	      2.35468278	     -2.66917793
      0.51700000	     -2.29932179	     -0.06936395	     -1.54824155	     -0.66891819	      1.05120992	      0.31931531	     21.45937340	      4.58715867	     -2.62419531	     -9.90617879	      1.44085325	     -7.55890605	     -0.82046462	     -1.91344828	      0.58461178	     -9.07796837	    -35.49791582	      7.04860293	     10.54704305	      1.30593691	      4.04331133	      2.44695355	     -2.63429432
      0.52116667	     -2.22883894	     -0.16878835	     -1.53248204	     -0.66313719	      1.05115720	      0.31961643	     21.29710112	      4.69765001	     -2.46740965	    -10.35630388	      1.22236750	     -7.69341372	     -0.82773402	     -1.38247561	      0.25567825	     -9.14807835	    -37.18764805	      6.20908650	     10.65606628	      1.43916711	      3.87230853	      2.67441092	     -2.64133248
      0.52533333	     -2.13543945	     -0.32195350	     -1.49768159	     -0.65726349	      1.05116562	      0.31995091	     21.09100580	      4.86178704	     -2.38277476	    -10.77663441	      0.99131126	     -7.89850790	     -0.83647994	     -0.85927375	     -0.14699767	     -9.21232745	    -38.88319968	      5.15065236	     10.74713885	      1.58359468	      3.78495926	      2.85216586	     -2.62533739
      0.52950000	     -2.07536661	     -0.48166652	     -1.46727734	     -0.65140377	      1.05111824	      0.32028811	     20.92201501	      5.03217689	     -2.31931696	    -11.20323560	      0.76614314	     -8.15627675	     -0.84691930	     -0.27393766	     -0.55489394	     -9.24435713	    -40.59817685	      4.05938265	     10.73900320	      1.76024228	      3.75326067	      3.03450591	     -2.59915897
